<?xml version="1.0" standalone="no"?>
<!DOCTYPE svg PUBLIC "-//W3C//DTD SVG 20010904//EN"
 "http://www.w3.org/TR/2001/REC-SVG-20010904/DTD/svg10.dtd">
<svg version="1.0" xmlns="http://www.w3.org/2000/svg"
 width="16.000000pt" height="16.000000pt" viewBox="0 0 16.000000 16.000000"
 preserveAspectRatio="xMidYMid meet">

<g transform="translate(0.000000,16.000000) scale(0.100000,-0.100000)"
fill="#000000" stroke="none">
<path d="M35 130 l-29 -30 24 -25 c13 -14 30 -25 38 -25 12 0 9 7 -8 25 l-23
25 22 24 c12 13 18 26 13 30 -5 3 -22 -8 -37 -24z"/>
<path d="M100 85 l23 -25 -22 -24 c-12 -13 -18 -26 -13 -30 5 -3 21 8 37 24
l28 29 -29 25 c-37 33 -54 33 -24 1z"/>
</g>
</svg>
